<?xml version="1.0" standalone="no"?>
<!DOCTYPE svg PUBLIC "-//W3C//DTD SVG 20010904//EN"
 "http://www.w3.org/TR/2001/REC-SVG-20010904/DTD/svg10.dtd">
<svg version="1.0" xmlns="http://www.w3.org/2000/svg"
 width="1024.000000pt" height="1024.000000pt" viewBox="0 0 1024.000000 1024.000000"
 preserveAspectRatio="xMidYMid meet">

<g transform="translate(0.000000,1024.000000) scale(0.100000,-0.100000)"
fill="#000000" stroke="none">
<path d="M0 5120 l0 -5120 5120 0 5120 0 0 5120 0 5120 -5120 0 -5120 0 0
-5120z m5380 3369 c129 -14 394 -65 513 -99 407 -114 795 -336 1101 -631 105
-101 256 -268 256 -283 0 -3 -36 -6 -80 -6 l-81 0 -127 129 c-210 212 -412
356 -687 491 -315 155 -648 242 -1037 270 -406 30 -882 -69 -1277 -266 -567
-283 -977 -708 -1218 -1265 -187 -431 -244 -924 -161 -1399 12 -69 22 -138 22
-155 -1 -46 -51 -242 -58 -225 -34 90 -99 374 -116 512 -14 112 -14 486 0 608
52 471 249 940 551 1317 143 180 381 401 586 546 201 141 526 291 803 371 192
54 333 78 610 100 64 5 300 -4 400 -15z m-750 -517 c0 -20 44 -65 75 -76 18
-7 17 -9 -10 -20 -33 -14 -54 -36 -72 -75 -10 -22 -11 -23 -12 -6 -1 30 -30
65 -65 80 -28 12 -29 14 -11 21 31 11 75 56 75 76 0 10 5 18 10 18 6 0 10 -8
10 -18z m736 -48 c8 -33 -15 -59 -45 -49 -15 4 -21 15 -21 34 0 34 7 41 36 41
17 0 25 -7 30 -26z m724 -174 c11 -11 20 -24 20 -30 0 -12 -37 -50 -48 -50
-18 0 -52 33 -52 50 0 17 34 50 52 50 5 0 17 -9 28 -20z m-2020 -58 c28 -23
20 -59 -16 -68 -46 -12 -72 37 -38 70 20 20 27 20 54 -2z m1400 -156 c138 -29
228 -61 379 -132 391 -185 656 -491 808 -933 28 -81 37 -122 37 -174 0 -63 -3
-70 -31 -99 l-31 -31 -7 49 c-10 79 -24 133 -62 234 -84 225 -203 418 -359
580 -266 275 -593 419 -989 436 -128 6 -277 -5 -293 -21 -3 -3 0 -15 7 -27 18
-30 -12 -67 -68 -84 -53 -15 -84 -44 -122 -109 -43 -75 -37 -101 25 -97 31 3
59 20 137 87 52 45 86 58 112 43 8 -4 31 -30 50 -57 20 -27 49 -57 66 -67 44
-26 40 -49 -11 -66 -41 -13 -46 -18 -67 -70 -12 -31 -44 -37 -100 -17 -28 10
-35 8 -69 -17 -20 -16 -73 -63 -117 -105 -45 -42 -99 -86 -122 -97 -78 -40
-106 -94 -107 -207 -1 -44 -4 -51 -28 -62 -44 -22 -60 -8 -57 51 3 45 0 52
-21 64 -34 18 -168 8 -224 -16 -66 -30 -116 -117 -116 -202 0 -81 98 -117 174
-65 74 50 98 19 56 -74 -29 -63 -25 -82 23 -128 72 -71 118 -79 204 -33 63 34
88 37 140 15 27 -12 44 -13 72 -5 68 19 96 13 146 -30 25 -22 54 -44 64 -50
10 -5 21 -23 24 -39 5 -22 21 -41 57 -67 43 -31 50 -41 50 -69 0 -29 5 -35 40
-49 22 -9 58 -16 80 -16 151 0 240 -76 240 -203 0 -74 -13 -100 -94 -189 -50
-55 -84 -83 -125 -102 -74 -34 -117 -79 -139 -146 -14 -44 -27 -62 -72 -99
-34 -27 -71 -71 -98 -115 -23 -38 -59 -87 -79 -108 l-38 -39 28 -48 c45 -80
35 -100 -34 -74 -61 23 -95 58 -120 122 -19 49 -23 85 -28 271 -8 252 -11 264
-97 336 -146 121 -184 179 -192 285 -5 74 8 108 64 172 67 73 35 137 -81 165
-69 17 -70 18 -112 81 -58 88 -79 108 -134 126 -52 18 -132 82 -154 125 -10
20 -13 46 -9 91 5 54 1 75 -21 134 -15 39 -30 97 -33 130 l-7 60 -51 -95
c-173 -323 -219 -623 -149 -975 13 -66 36 -156 50 -200 35 -107 122 -287 188
-389 l55 -83 -43 -10 -43 -10 -57 86 c-71 107 -144 257 -184 381 -181 556 -80
1085 298 1552 85 106 208 218 321 293 216 144 404 213 705 259 17 2 109 3 205
1 139 -3 199 -9 290 -29z m1064 -2 c7 -19 -1 -34 -19 -34 -18 0 -28 17 -21 35
7 20 32 19 40 -1z m-2964 -249 c15 -19 4 -52 -21 -60 -11 -4 -26 -1 -34 5 -15
13 -20 51 -8 63 12 12 50 7 63 -8z m3723 -14 c52 -17 80 -34 117 -69 70 -68
84 -138 56 -267 -55 -252 -370 -661 -780 -1013 -94 -80 -224 -193 -290 -250
-69 -61 -122 -100 -128 -94 -4 4 -7 100 -6 213 3 196 4 204 23 204 19 0 20 -8
25 -157 l5 -156 100 90 c373 339 564 546 708 769 97 149 152 272 167 373 6 43
8 46 9 15 3 -81 -68 -246 -174 -404 -105 -157 -241 -314 -456 -527 -130 -129
-199 -204 -199 -218 0 -11 5 -20 11 -20 5 0 7 5 3 12 -4 6 -3 8 4 4 5 -3 12
-3 14 2 1 4 23 23 48 42 71 54 155 133 153 142 -2 4 0 7 5 7 20 -3 32 2 26 13
-4 6 -3 8 3 5 11 -7 73 53 70 67 -1 5 7 10 17 12 19 3 52 35 213 210 114 124
174 200 263 336 164 249 211 451 129 554 -75 94 -154 119 -379 119 -194 -1
-318 -22 -512 -86 -68 -23 -125 -43 -127 -45 -2 -2 7 -7 19 -12 22 -8 23 -9 3
-14 -12 -3 -24 1 -31 12 -10 16 -1 22 86 53 113 40 278 83 378 96 38 5 134 8
214 7 116 -3 159 -8 213 -25z m-250 -96 c32 -8 64 -12 70 -8 7 3 8 2 4 -2 -4
-5 10 -18 31 -30 42 -22 88 -59 112 -90 8 -11 -6 -1 -32 22 -101 91 -192 117
-408 116 -119 0 -178 -6 -254 -22 -55 -12 -101 -19 -103 -17 -6 5 140 36 242
50 59 9 281 -4 338 -19z m-1213 -124 c0 -155 11 -127 -96 -243 l-44 -47 0
-174 0 -175 -115 -103 c-93 -85 -114 -109 -115 -132 -1 -120 -159 -162 -213
-57 -31 60 -6 143 49 168 36 17 75 15 110 -7 l30 -18 58 54 c34 32 62 51 69
47 7 -4 9 -4 5 1 -4 4 8 25 27 47 l35 38 0 173 0 172 70 77 70 76 0 121 0 121
30 0 30 0 0 -139z m-364 68 c10 -17 -23 -46 -37 -32 -7 7 -9 19 -6 27 7 18 33
21 43 5z m1823 -139 c0 -10 -3 -8 -9 5 -12 27 -12 43 0 25 5 -8 9 -22 9 -30z
m-1189 -194 l0 -214 -25 -31 c-63 -74 -165 -60 -202 28 -37 86 32 171 127 158
l40 -5 0 139 0 139 30 0 30 0 0 -214z m1548 -2 c115 -306 172 -672 159 -1024
-17 -468 -146 -882 -400 -1287 -46 -74 -55 -83 -82 -83 -16 0 -54 -3 -83 -7
l-53 -6 84 124 c196 292 328 632 384 989 25 163 25 577 -1 740 -18 118 -61
294 -94 389 l-18 55 28 80 c15 45 28 92 28 106 0 36 14 15 48 -76z m-4315 -42
c23 -11 49 -22 57 -25 9 -3 5 -6 -10 -6 -56 -2 -128 -79 -131 -138 0 -10 -7 2
-14 27 -17 54 -48 87 -100 104 l-37 13 32 6 c41 9 98 66 107 107 l6 32 24 -50
c19 -40 33 -55 66 -70z m2965 -208 l2 -221 -60 -56 -60 -57 -138 0 -138 0 -29
-30 c-16 -17 -35 -28 -42 -26 -7 3 -10 -1 -7 -8 3 -7 -27 -42 -66 -79 l-70
-65 0 -161 0 -160 50 -42 50 -42 0 -137 0 -138 -110 -92 -110 -91 0 -190 0
-189 -30 0 -30 0 0 208 0 209 105 86 105 87 0 106 0 106 -50 45 -50 45 0 187
0 187 129 127 128 127 139 0 140 0 41 43 40 42 2 195 c2 198 5 214 41 207 13
-2 15 -36 18 -223z m-982 187 c37 -23 59 -77 50 -125 -6 -30 -3 -36 29 -57 26
-18 35 -31 35 -51 0 -39 -28 -37 -79 6 -35 29 -47 34 -76 29 -94 -15 -156 79
-109 168 26 50 94 64 150 30z m-438 -239 c3 -16 -2 -22 -17 -22 -24 0 -33 13
-25 35 9 23 38 14 42 -13z m-247 -158 c9 -11 10 -20 2 -32 -24 -39 -82 -15
-68 28 8 24 47 27 66 4z m-1576 -129 c0 -27 -3 -30 -30 -30 -21 0 -31 5 -33
18 -5 25 17 49 42 45 16 -2 21 -10 21 -33z m3360 -100 c0 -28 -29 -25 -33 3
-3 19 0 23 15 20 10 -2 18 -12 18 -23z m-3108 -196 c-283 -286 -419 -535 -421
-769 -1 -63 3 -84 27 -133 48 -96 131 -146 309 -184 99 -21 385 -24 593 -5
133 13 476 71 598 101 62 16 67 16 67 1 0 -47 -607 -193 -958 -231 -140 -15
-414 -7 -492 14 -168 46 -247 98 -298 197 -33 62 -34 69 -29 145 18 278 323
712 677 963 30 21 56 38 57 37 2 -1 -57 -62 -130 -136z m2750 101 c58 -35 57
-130 -3 -178 l-34 -27 0 -205 0 -205 45 -47 45 -47 0 -156 0 -155 -25 0 -25 0
0 133 0 133 -50 49 -50 49 0 229 0 228 -30 25 c-51 43 -53 124 -3 170 32 30
85 32 130 4z m-2134 -3 c8 -20 -9 -41 -27 -34 -23 9 -21 47 3 47 10 0 21 -6
24 -13z m3362 -96 c0 -34 -30 -51 -51 -29 -25 24 -10 60 24 56 21 -2 27 -8 27
-27z m-785 -91 c0 -5 -5 -10 -11 -10 -5 0 -7 5 -4 10 3 6 8 10 11 10 2 0 4 -4
4 -10z m193 -137 c-34 -185 -134 -425 -252 -600 -87 -131 -289 -333 -411 -413
-176 -115 -402 -213 -581 -251 -143 -31 -459 -34 -589 -5 -194 42 -419 133
-562 227 -38 24 -68 46 -68 50 0 7 70 29 93 29 9 0 50 -21 92 -46 340 -206
792 -249 1198 -114 220 74 409 190 567 350 124 125 208 240 284 390 57 109
126 298 126 341 0 22 89 119 109 119 5 0 2 -35 -6 -77z m-2623 -99 c0 -28 -25
-42 -48 -27 -23 14 -25 29 -8 46 22 22 56 10 56 -19z m2168 -133 c21 -13 10
-46 -16 -49 -24 -4 -38 18 -28 43 6 17 24 19 44 6z m916 -132 c27 -12 34 -19
21 -19 -32 0 -65 -29 -85 -74 -17 -37 -19 -38 -19 -14 -1 32 -54 88 -84 89
-21 0 -20 1 3 10 40 16 80 60 80 88 0 22 3 20 22 -18 16 -32 32 -48 62 -62z
m-2879 -90 c0 -15 -7 -25 -18 -27 -22 -4 -33 24 -17 43 18 21 35 13 35 -16z
m1542 -225 c8 -22 -10 -49 -32 -49 -10 0 -22 7 -28 16 -15 24 -1 49 28 49 15
0 28 -7 32 -16z m-529 -87 c4 -20 -25 -34 -40 -19 -15 15 -1 44 19 40 10 -2
19 -11 21 -21z m1470 -149 c17 -17 15 -53 -3 -68 -24 -20 -65 3 -65 34 0 37
43 59 68 34z m-1816 -647 c53 -21 148 -97 148 -119 0 -5 -25 -26 -56 -46 l-56
-38 -30 31 c-91 93 -271 74 -271 -30 0 -22 8 -39 26 -55 28 -24 48 -31 178
-58 155 -34 229 -108 229 -230 0 -108 -67 -196 -173 -228 -54 -16 -200 -16
-254 0 -57 17 -129 69 -166 119 -35 49 -33 54 42 108 l44 32 31 -45 c53 -78
158 -113 243 -81 91 34 100 126 17 172 -6 3 -55 16 -108 27 -202 44 -266 101
-266 232 1 187 210 290 422 209z m-592 -378 l0 -399 -77 1 -78 1 -3 389 c-1
270 1 391 9 395 5 4 42 8 80 9 l69 2 0 -398z m1052 240 l3 -158 167 0 168 0 0
158 0 158 78 -3 77 -3 0 -394 0 -394 -77 -4 -78 -5 0 171 0 171 -170 0 -170 0
0 -170 0 -170 -75 0 -75 0 0 400 0 400 75 0 74 0 3 -157z m840 15 c0 -79 1
-151 0 -160 -1 -10 0 -18 2 -18 2 0 65 70 141 155 l137 155 99 0 99 0 -136
-157 c-75 -86 -138 -162 -141 -169 -2 -7 64 -107 147 -224 83 -116 153 -217
156 -224 4 -10 -17 -13 -85 -14 l-90 -1 -117 167 c-64 92 -119 169 -121 172
-3 3 -25 -17 -49 -44 l-43 -49 0 -116 1 -116 -76 -3 -76 -3 0 394 0 393 75 2
75 3 2 -143z m-3935 70 c11 -35 72 -202 136 -373 139 -376 134 -360 112 -352
-9 4 -47 7 -85 7 -64 0 -68 1 -74 25 -4 14 -16 50 -27 80 l-20 55 -159 0 -158
0 -6 -25 c-4 -14 -16 -50 -27 -80 l-20 -55 -80 0 c-43 0 -79 2 -79 4 0 2 59
165 131 362 72 198 136 371 141 387 10 27 11 27 102 27 l92 0 21 -62z m808 45
c11 -29 142 -383 211 -572 35 -95 64 -177 64 -182 0 -5 -35 -9 -77 -9 l-78 0
-28 80 -28 80 -159 0 -159 0 -28 -79 -28 -80 -82 -3 c-46 -2 -83 -3 -83 -2 0
0 27 74 61 165 33 90 85 231 115 312 30 82 68 185 85 228 l30 79 89 0 c74 0
89 -3 95 -17z m422 -125 c28 -79 74 -214 104 -300 30 -87 56 -158 59 -158 3 0
52 135 109 300 l104 300 79 0 c60 0 79 -3 75 -12 -2 -7 -64 -179 -137 -383
-74 -203 -137 -375 -142 -381 -6 -8 -40 -11 -96 -10 l-87 1 -52 145 c-29 80
-79 219 -112 310 -33 91 -73 202 -90 248 l-30 82 83 0 84 0 49 -142z m3919
-248 c79 -212 144 -386 144 -387 0 -2 -37 -3 -82 -3 l-83 0 -28 80 -28 80
-159 0 -158 0 -28 -79 -28 -79 -41 -5 c-55 -6 -120 -1 -118 9 1 9 218 599 263
717 l22 58 90 -3 91 -3 143 -385z m728 366 c161 -80 183 -304 42 -433 l-53
-49 84 -132 c45 -74 83 -135 83 -138 0 -2 -39 -4 -87 -4 l-88 1 -80 129 -80
129 -67 1 -68 0 0 -135 0 -136 -77 3 -78 3 -3 393 -2 393 217 -3 c191 -3 223
-5 257 -22z m-2469 -1004 c41 -21 100 -78 127 -122 52 -86 73 -280 44 -404
-42 -179 -137 -260 -306 -259 -119 0 -180 29 -241 111 -83 113 -100 342 -37
509 27 73 96 147 161 173 68 27 193 23 252 -8z m-955 -232 l0 -250 45 0 45 0
0 -65 0 -65 -45 0 -45 0 0 -75 0 -75 -75 0 -75 0 0 75 0 75 -195 0 -195 0 0
56 c0 53 4 62 127 262 70 114 142 231 160 260 l34 52 109 0 110 0 0 -250z
m361 -365 c55 -29 65 -100 20 -146 -53 -53 -138 -35 -161 35 -13 41 -2 75 36
105 32 25 64 27 105 6z"/>
<path d="M4980 5653 l-65 -68 68 65 c37 35 67 66 67 67 0 8 -10 -2 -70 -64z"/>
<path d="M5206 5591 c-4 -5 3 -7 14 -4 23 6 26 13 6 13 -8 0 -17 -4 -20 -9z"/>
<path d="M4901 5544 c0 -11 13 -33 32 -50 l32 -29 -27 30 c-14 17 -28 39 -31
50 -5 19 -5 19 -6 -1z"/>
<path d="M4951 5394 c0 -11 3 -14 6 -6 3 7 2 16 -1 19 -3 4 -6 -2 -5 -13z"/>
<path d="M4842 5190 c0 -14 2 -19 5 -12 2 6 2 18 0 25 -3 6 -5 1 -5 -13z"/>
<path d="M4850 5125 c0 -5 10 -21 21 -35 13 -17 17 -18 10 -5 -17 33 -31 51
-31 40z"/>
<path d="M6416 5751 c-3 -5 3 -11 15 -14 16 -4 18 -3 8 9 -13 16 -16 17 -23 5z"/>
<path d="M5307 6222 c-22 -24 -21 -45 1 -65 27 -24 59 -21 78 8 15 23 15 27 0
50 -20 30 -56 33 -79 7z"/>
<path d="M5942 6658 c-28 -28 -2 -88 38 -88 40 0 66 60 38 88 -7 7 -24 12 -38
12 -14 0 -31 -5 -38 -12z"/>
<path d="M5226 6674 c-22 -21 -20 -61 3 -74 33 -17 61 -12 73 15 25 55 -34
101 -76 59z"/>
<path d="M5961 5956 c-38 -46 25 -111 69 -71 25 23 26 47 2 68 -23 21 -56 22
-71 3z"/>
<path d="M4016 5582 c-8 -13 10 -35 24 -30 21 7 21 38 0 38 -10 0 -21 -4 -24
-8z"/>
<path d="M5760 4981 c0 -24 25 -34 40 -16 15 18 5 35 -21 35 -12 0 -19 -7 -19
-19z"/>
<path d="M5261 4904 c0 -11 3 -14 6 -6 3 7 2 16 -1 19 -3 4 -6 -2 -5 -13z"/>
<path d="M2137 3797 c-26 -78 -47 -145 -47 -149 0 -5 48 -8 106 -8 81 0 105 3
102 13 -3 6 -27 74 -53 150 -27 75 -51 137 -54 137 -4 -1 -27 -65 -54 -143z"/>
<path d="M2963 3790 l-52 -150 109 0 109 0 -52 150 c-29 82 -54 150 -57 150
-3 0 -28 -68 -57 -150z"/>
<path d="M7163 3790 l-52 -150 110 0 c61 0 109 4 107 9 -1 5 -25 72 -53 150
-27 77 -52 141 -55 141 -3 0 -28 -68 -57 -150z"/>
<path d="M7870 3871 l0 -131 90 0 c136 0 188 30 197 113 6 55 -16 100 -60 124
-22 11 -64 18 -129 21 l-98 4 0 -131z"/>
<path d="M5507 2952 c-15 -9 -40 -42 -55 -72 -25 -50 -27 -65 -27 -170 0 -127
18 -186 71 -235 33 -31 110 -35 155 -8 50 30 83 111 87 218 6 121 -15 194 -68
247 -33 34 -43 38 -86 38 -28 0 -61 -8 -77 -18z"/>
<path d="M4503 2770 l-102 -160 105 0 104 0 0 160 c0 88 -1 160 -2 160 -2 0
-49 -72 -105 -160z"/>
</g>
</svg>
